G04 Layer: TopPasteMaskLayer*
G04 EasyEDA v6.4.7, 2021-01-21T12:31:56+00:00*
G04 8b80c43fe55248bfb6e8376c4506c8f5,74a5fafabdd44b6e8d5e0fe5421ccbd6,10*
G04 Gerber Generator version 0.2*
G04 Scale: 100 percent, Rotated: No, Reflected: No *
G04 Dimensions in millimeters *
G04 leading zeros omitted , absolute positions ,3 integer and 3 decimal *
%FSLAX33Y33*%
%MOMM*%
G90*
D02*

%ADD15R,0.999998X1.099998*%

%LPD*%
G36*
G01X68180Y2820D02*
G01X66681Y2820D01*
G01X66681Y3819D01*
G01X68180Y3819D01*
G01X68180Y2820D01*
G37*
G36*
G01X68180Y6020D02*
G01X66681Y6020D01*
G01X66681Y7019D01*
G01X68180Y7019D01*
G01X68180Y6020D01*
G37*
G36*
G01X63281Y6020D02*
G01X61780Y6020D01*
G01X61780Y7019D01*
G01X63281Y7019D01*
G01X63281Y6020D01*
G37*
G36*
G01X63281Y2820D02*
G01X61780Y2820D01*
G01X61780Y3819D01*
G01X63281Y3819D01*
G01X63281Y2820D01*
G37*
G36*
G01X78180Y2820D02*
G01X76681Y2820D01*
G01X76681Y3819D01*
G01X78180Y3819D01*
G01X78180Y2820D01*
G37*
G36*
G01X78180Y6020D02*
G01X76681Y6020D01*
G01X76681Y7019D01*
G01X78180Y7019D01*
G01X78180Y6020D01*
G37*
G36*
G01X73281Y6020D02*
G01X71780Y6020D01*
G01X71780Y7019D01*
G01X73281Y7019D01*
G01X73281Y6020D01*
G37*
G36*
G01X73281Y2820D02*
G01X71780Y2820D01*
G01X71780Y3819D01*
G01X73281Y3819D01*
G01X73281Y2820D01*
G37*
G36*
G01X48180Y2820D02*
G01X46681Y2820D01*
G01X46681Y3819D01*
G01X48180Y3819D01*
G01X48180Y2820D01*
G37*
G36*
G01X48180Y6020D02*
G01X46681Y6020D01*
G01X46681Y7019D01*
G01X48180Y7019D01*
G01X48180Y6020D01*
G37*
G36*
G01X43281Y6020D02*
G01X41780Y6020D01*
G01X41780Y7019D01*
G01X43281Y7019D01*
G01X43281Y6020D01*
G37*
G36*
G01X43281Y2820D02*
G01X41780Y2820D01*
G01X41780Y3819D01*
G01X43281Y3819D01*
G01X43281Y2820D01*
G37*
G36*
G01X38180Y2820D02*
G01X36681Y2820D01*
G01X36681Y3819D01*
G01X38180Y3819D01*
G01X38180Y2820D01*
G37*
G36*
G01X38180Y6020D02*
G01X36681Y6020D01*
G01X36681Y7019D01*
G01X38180Y7019D01*
G01X38180Y6020D01*
G37*
G36*
G01X33281Y6020D02*
G01X31780Y6020D01*
G01X31780Y7019D01*
G01X33281Y7019D01*
G01X33281Y6020D01*
G37*
G36*
G01X33281Y2820D02*
G01X31780Y2820D01*
G01X31780Y3819D01*
G01X33281Y3819D01*
G01X33281Y2820D01*
G37*
G36*
G01X28180Y2820D02*
G01X26681Y2820D01*
G01X26681Y3819D01*
G01X28180Y3819D01*
G01X28180Y2820D01*
G37*
G36*
G01X28180Y6020D02*
G01X26681Y6020D01*
G01X26681Y7019D01*
G01X28180Y7019D01*
G01X28180Y6020D01*
G37*
G36*
G01X23281Y6020D02*
G01X21780Y6020D01*
G01X21780Y7019D01*
G01X23281Y7019D01*
G01X23281Y6020D01*
G37*
G36*
G01X23281Y2820D02*
G01X21780Y2820D01*
G01X21780Y3819D01*
G01X23281Y3819D01*
G01X23281Y2820D01*
G37*
G36*
G01X18180Y2820D02*
G01X16681Y2820D01*
G01X16681Y3819D01*
G01X18180Y3819D01*
G01X18180Y2820D01*
G37*
G36*
G01X18180Y6020D02*
G01X16681Y6020D01*
G01X16681Y7019D01*
G01X18180Y7019D01*
G01X18180Y6020D01*
G37*
G36*
G01X13281Y6020D02*
G01X11780Y6020D01*
G01X11780Y7019D01*
G01X13281Y7019D01*
G01X13281Y6020D01*
G37*
G36*
G01X13281Y2820D02*
G01X11780Y2820D01*
G01X11780Y3819D01*
G01X13281Y3819D01*
G01X13281Y2820D01*
G37*
G36*
G01X8180Y2820D02*
G01X6681Y2820D01*
G01X6681Y3819D01*
G01X8180Y3819D01*
G01X8180Y2820D01*
G37*
G36*
G01X8180Y6020D02*
G01X6681Y6020D01*
G01X6681Y7019D01*
G01X8180Y7019D01*
G01X8180Y6020D01*
G37*
G36*
G01X3281Y6020D02*
G01X1780Y6020D01*
G01X1780Y7019D01*
G01X3281Y7019D01*
G01X3281Y6020D01*
G37*
G36*
G01X3281Y2820D02*
G01X1780Y2820D01*
G01X1780Y3819D01*
G01X3281Y3819D01*
G01X3281Y2820D01*
G37*
G36*
G01X98180Y17820D02*
G01X96681Y17820D01*
G01X96681Y18819D01*
G01X98180Y18819D01*
G01X98180Y17820D01*
G37*
G36*
G01X98180Y21020D02*
G01X96681Y21020D01*
G01X96681Y22019D01*
G01X98180Y22019D01*
G01X98180Y21020D01*
G37*
G36*
G01X93281Y21020D02*
G01X91780Y21020D01*
G01X91780Y22019D01*
G01X93281Y22019D01*
G01X93281Y21020D01*
G37*
G36*
G01X93281Y17820D02*
G01X91780Y17820D01*
G01X91780Y18819D01*
G01X93281Y18819D01*
G01X93281Y17820D01*
G37*
G36*
G01X88180Y17820D02*
G01X86681Y17820D01*
G01X86681Y18819D01*
G01X88180Y18819D01*
G01X88180Y17820D01*
G37*
G36*
G01X88180Y21020D02*
G01X86681Y21020D01*
G01X86681Y22019D01*
G01X88180Y22019D01*
G01X88180Y21020D01*
G37*
G36*
G01X83281Y21020D02*
G01X81780Y21020D01*
G01X81780Y22019D01*
G01X83281Y22019D01*
G01X83281Y21020D01*
G37*
G36*
G01X83281Y17820D02*
G01X81780Y17820D01*
G01X81780Y18819D01*
G01X83281Y18819D01*
G01X83281Y17820D01*
G37*
G36*
G01X58180Y17820D02*
G01X56681Y17820D01*
G01X56681Y18819D01*
G01X58180Y18819D01*
G01X58180Y17820D01*
G37*
G36*
G01X58180Y21020D02*
G01X56681Y21020D01*
G01X56681Y22019D01*
G01X58180Y22019D01*
G01X58180Y21020D01*
G37*
G36*
G01X53281Y21020D02*
G01X51780Y21020D01*
G01X51780Y22019D01*
G01X53281Y22019D01*
G01X53281Y21020D01*
G37*
G36*
G01X53281Y17820D02*
G01X51780Y17820D01*
G01X51780Y18819D01*
G01X53281Y18819D01*
G01X53281Y17820D01*
G37*
G36*
G01X68180Y17820D02*
G01X66681Y17820D01*
G01X66681Y18819D01*
G01X68180Y18819D01*
G01X68180Y17820D01*
G37*
G36*
G01X68180Y21020D02*
G01X66681Y21020D01*
G01X66681Y22019D01*
G01X68180Y22019D01*
G01X68180Y21020D01*
G37*
G36*
G01X63281Y21020D02*
G01X61780Y21020D01*
G01X61780Y22019D01*
G01X63281Y22019D01*
G01X63281Y21020D01*
G37*
G36*
G01X63281Y17820D02*
G01X61780Y17820D01*
G01X61780Y18819D01*
G01X63281Y18819D01*
G01X63281Y17820D01*
G37*
G36*
G01X78180Y17820D02*
G01X76681Y17820D01*
G01X76681Y18819D01*
G01X78180Y18819D01*
G01X78180Y17820D01*
G37*
G36*
G01X78180Y21020D02*
G01X76681Y21020D01*
G01X76681Y22019D01*
G01X78180Y22019D01*
G01X78180Y21020D01*
G37*
G36*
G01X73281Y21020D02*
G01X71780Y21020D01*
G01X71780Y22019D01*
G01X73281Y22019D01*
G01X73281Y21020D01*
G37*
G36*
G01X73281Y17820D02*
G01X71780Y17820D01*
G01X71780Y18819D01*
G01X73281Y18819D01*
G01X73281Y17820D01*
G37*
G36*
G01X48180Y17820D02*
G01X46681Y17820D01*
G01X46681Y18819D01*
G01X48180Y18819D01*
G01X48180Y17820D01*
G37*
G36*
G01X48180Y21020D02*
G01X46681Y21020D01*
G01X46681Y22019D01*
G01X48180Y22019D01*
G01X48180Y21020D01*
G37*
G36*
G01X43281Y21020D02*
G01X41780Y21020D01*
G01X41780Y22019D01*
G01X43281Y22019D01*
G01X43281Y21020D01*
G37*
G36*
G01X43281Y17820D02*
G01X41780Y17820D01*
G01X41780Y18819D01*
G01X43281Y18819D01*
G01X43281Y17820D01*
G37*
G36*
G01X38180Y17820D02*
G01X36681Y17820D01*
G01X36681Y18819D01*
G01X38180Y18819D01*
G01X38180Y17820D01*
G37*
G36*
G01X38180Y21020D02*
G01X36681Y21020D01*
G01X36681Y22019D01*
G01X38180Y22019D01*
G01X38180Y21020D01*
G37*
G36*
G01X33281Y21020D02*
G01X31780Y21020D01*
G01X31780Y22019D01*
G01X33281Y22019D01*
G01X33281Y21020D01*
G37*
G36*
G01X33281Y17820D02*
G01X31780Y17820D01*
G01X31780Y18819D01*
G01X33281Y18819D01*
G01X33281Y17820D01*
G37*
G36*
G01X28180Y17820D02*
G01X26681Y17820D01*
G01X26681Y18819D01*
G01X28180Y18819D01*
G01X28180Y17820D01*
G37*
G36*
G01X28180Y21020D02*
G01X26681Y21020D01*
G01X26681Y22019D01*
G01X28180Y22019D01*
G01X28180Y21020D01*
G37*
G36*
G01X23281Y21020D02*
G01X21780Y21020D01*
G01X21780Y22019D01*
G01X23281Y22019D01*
G01X23281Y21020D01*
G37*
G36*
G01X23281Y17820D02*
G01X21780Y17820D01*
G01X21780Y18819D01*
G01X23281Y18819D01*
G01X23281Y17820D01*
G37*
G36*
G01X18180Y17820D02*
G01X16681Y17820D01*
G01X16681Y18819D01*
G01X18180Y18819D01*
G01X18180Y17820D01*
G37*
G36*
G01X18180Y21020D02*
G01X16681Y21020D01*
G01X16681Y22019D01*
G01X18180Y22019D01*
G01X18180Y21020D01*
G37*
G36*
G01X13281Y21020D02*
G01X11780Y21020D01*
G01X11780Y22019D01*
G01X13281Y22019D01*
G01X13281Y21020D01*
G37*
G36*
G01X13281Y17820D02*
G01X11780Y17820D01*
G01X11780Y18819D01*
G01X13281Y18819D01*
G01X13281Y17820D01*
G37*
G36*
G01X8180Y17820D02*
G01X6681Y17820D01*
G01X6681Y18819D01*
G01X8180Y18819D01*
G01X8180Y17820D01*
G37*
G36*
G01X8180Y21020D02*
G01X6681Y21020D01*
G01X6681Y22019D01*
G01X8180Y22019D01*
G01X8180Y21020D01*
G37*
G36*
G01X3281Y21020D02*
G01X1780Y21020D01*
G01X1780Y22019D01*
G01X3281Y22019D01*
G01X3281Y21020D01*
G37*
G36*
G01X3281Y17820D02*
G01X1780Y17820D01*
G01X1780Y18819D01*
G01X3281Y18819D01*
G01X3281Y17820D01*
G37*
G36*
G01X98180Y2820D02*
G01X96681Y2820D01*
G01X96681Y3819D01*
G01X98180Y3819D01*
G01X98180Y2820D01*
G37*
G36*
G01X98180Y6020D02*
G01X96681Y6020D01*
G01X96681Y7019D01*
G01X98180Y7019D01*
G01X98180Y6020D01*
G37*
G36*
G01X93281Y6020D02*
G01X91780Y6020D01*
G01X91780Y7019D01*
G01X93281Y7019D01*
G01X93281Y6020D01*
G37*
G36*
G01X93281Y2820D02*
G01X91780Y2820D01*
G01X91780Y3819D01*
G01X93281Y3819D01*
G01X93281Y2820D01*
G37*
G36*
G01X8180Y32820D02*
G01X6681Y32820D01*
G01X6681Y33819D01*
G01X8180Y33819D01*
G01X8180Y32820D01*
G37*
G36*
G01X8180Y36020D02*
G01X6681Y36020D01*
G01X6681Y37019D01*
G01X8180Y37019D01*
G01X8180Y36020D01*
G37*
G36*
G01X3281Y36020D02*
G01X1780Y36020D01*
G01X1780Y37019D01*
G01X3281Y37019D01*
G01X3281Y36020D01*
G37*
G36*
G01X3281Y32820D02*
G01X1780Y32820D01*
G01X1780Y33819D01*
G01X3281Y33819D01*
G01X3281Y32820D01*
G37*
G36*
G01X18180Y32820D02*
G01X16681Y32820D01*
G01X16681Y33819D01*
G01X18180Y33819D01*
G01X18180Y32820D01*
G37*
G36*
G01X18180Y36020D02*
G01X16681Y36020D01*
G01X16681Y37019D01*
G01X18180Y37019D01*
G01X18180Y36020D01*
G37*
G36*
G01X13281Y36020D02*
G01X11780Y36020D01*
G01X11780Y37019D01*
G01X13281Y37019D01*
G01X13281Y36020D01*
G37*
G36*
G01X13281Y32820D02*
G01X11780Y32820D01*
G01X11780Y33819D01*
G01X13281Y33819D01*
G01X13281Y32820D01*
G37*
G36*
G01X28180Y32820D02*
G01X26681Y32820D01*
G01X26681Y33819D01*
G01X28180Y33819D01*
G01X28180Y32820D01*
G37*
G36*
G01X28180Y36020D02*
G01X26681Y36020D01*
G01X26681Y37019D01*
G01X28180Y37019D01*
G01X28180Y36020D01*
G37*
G36*
G01X23281Y36020D02*
G01X21780Y36020D01*
G01X21780Y37019D01*
G01X23281Y37019D01*
G01X23281Y36020D01*
G37*
G36*
G01X23281Y32820D02*
G01X21780Y32820D01*
G01X21780Y33819D01*
G01X23281Y33819D01*
G01X23281Y32820D01*
G37*
G36*
G01X38180Y32820D02*
G01X36681Y32820D01*
G01X36681Y33819D01*
G01X38180Y33819D01*
G01X38180Y32820D01*
G37*
G36*
G01X38180Y36020D02*
G01X36681Y36020D01*
G01X36681Y37019D01*
G01X38180Y37019D01*
G01X38180Y36020D01*
G37*
G36*
G01X33281Y36020D02*
G01X31780Y36020D01*
G01X31780Y37019D01*
G01X33281Y37019D01*
G01X33281Y36020D01*
G37*
G36*
G01X33281Y32820D02*
G01X31780Y32820D01*
G01X31780Y33819D01*
G01X33281Y33819D01*
G01X33281Y32820D01*
G37*
G36*
G01X48180Y32820D02*
G01X46681Y32820D01*
G01X46681Y33819D01*
G01X48180Y33819D01*
G01X48180Y32820D01*
G37*
G36*
G01X48180Y36020D02*
G01X46681Y36020D01*
G01X46681Y37019D01*
G01X48180Y37019D01*
G01X48180Y36020D01*
G37*
G36*
G01X43281Y36020D02*
G01X41780Y36020D01*
G01X41780Y37019D01*
G01X43281Y37019D01*
G01X43281Y36020D01*
G37*
G36*
G01X43281Y32820D02*
G01X41780Y32820D01*
G01X41780Y33819D01*
G01X43281Y33819D01*
G01X43281Y32820D01*
G37*
G36*
G01X78180Y32820D02*
G01X76681Y32820D01*
G01X76681Y33819D01*
G01X78180Y33819D01*
G01X78180Y32820D01*
G37*
G36*
G01X78180Y36020D02*
G01X76681Y36020D01*
G01X76681Y37019D01*
G01X78180Y37019D01*
G01X78180Y36020D01*
G37*
G36*
G01X73281Y36020D02*
G01X71780Y36020D01*
G01X71780Y37019D01*
G01X73281Y37019D01*
G01X73281Y36020D01*
G37*
G36*
G01X73281Y32820D02*
G01X71780Y32820D01*
G01X71780Y33819D01*
G01X73281Y33819D01*
G01X73281Y32820D01*
G37*
G36*
G01X68180Y32820D02*
G01X66681Y32820D01*
G01X66681Y33819D01*
G01X68180Y33819D01*
G01X68180Y32820D01*
G37*
G36*
G01X68180Y36020D02*
G01X66681Y36020D01*
G01X66681Y37019D01*
G01X68180Y37019D01*
G01X68180Y36020D01*
G37*
G36*
G01X63281Y36020D02*
G01X61780Y36020D01*
G01X61780Y37019D01*
G01X63281Y37019D01*
G01X63281Y36020D01*
G37*
G36*
G01X63281Y32820D02*
G01X61780Y32820D01*
G01X61780Y33819D01*
G01X63281Y33819D01*
G01X63281Y32820D01*
G37*
G36*
G01X58180Y32820D02*
G01X56681Y32820D01*
G01X56681Y33819D01*
G01X58180Y33819D01*
G01X58180Y32820D01*
G37*
G36*
G01X58180Y36020D02*
G01X56681Y36020D01*
G01X56681Y37019D01*
G01X58180Y37019D01*
G01X58180Y36020D01*
G37*
G36*
G01X53281Y36020D02*
G01X51780Y36020D01*
G01X51780Y37019D01*
G01X53281Y37019D01*
G01X53281Y36020D01*
G37*
G36*
G01X53281Y32820D02*
G01X51780Y32820D01*
G01X51780Y33819D01*
G01X53281Y33819D01*
G01X53281Y32820D01*
G37*
G36*
G01X88180Y32820D02*
G01X86681Y32820D01*
G01X86681Y33819D01*
G01X88180Y33819D01*
G01X88180Y32820D01*
G37*
G36*
G01X88180Y36020D02*
G01X86681Y36020D01*
G01X86681Y37019D01*
G01X88180Y37019D01*
G01X88180Y36020D01*
G37*
G36*
G01X83281Y36020D02*
G01X81780Y36020D01*
G01X81780Y37019D01*
G01X83281Y37019D01*
G01X83281Y36020D01*
G37*
G36*
G01X83281Y32820D02*
G01X81780Y32820D01*
G01X81780Y33819D01*
G01X83281Y33819D01*
G01X83281Y32820D01*
G37*
G36*
G01X98180Y32820D02*
G01X96681Y32820D01*
G01X96681Y33819D01*
G01X98180Y33819D01*
G01X98180Y32820D01*
G37*
G36*
G01X98180Y36020D02*
G01X96681Y36020D01*
G01X96681Y37019D01*
G01X98180Y37019D01*
G01X98180Y36020D01*
G37*
G36*
G01X93281Y36020D02*
G01X91780Y36020D01*
G01X91780Y37019D01*
G01X93281Y37019D01*
G01X93281Y36020D01*
G37*
G36*
G01X93281Y32820D02*
G01X91780Y32820D01*
G01X91780Y33819D01*
G01X93281Y33819D01*
G01X93281Y32820D01*
G37*
G36*
G01X98180Y47820D02*
G01X96681Y47820D01*
G01X96681Y48819D01*
G01X98180Y48819D01*
G01X98180Y47820D01*
G37*
G36*
G01X98180Y51020D02*
G01X96681Y51020D01*
G01X96681Y52019D01*
G01X98180Y52019D01*
G01X98180Y51020D01*
G37*
G36*
G01X93281Y51020D02*
G01X91780Y51020D01*
G01X91780Y52019D01*
G01X93281Y52019D01*
G01X93281Y51020D01*
G37*
G36*
G01X93281Y47820D02*
G01X91780Y47820D01*
G01X91780Y48819D01*
G01X93281Y48819D01*
G01X93281Y47820D01*
G37*
G36*
G01X88180Y47820D02*
G01X86681Y47820D01*
G01X86681Y48819D01*
G01X88180Y48819D01*
G01X88180Y47820D01*
G37*
G36*
G01X88180Y51020D02*
G01X86681Y51020D01*
G01X86681Y52019D01*
G01X88180Y52019D01*
G01X88180Y51020D01*
G37*
G36*
G01X83281Y51020D02*
G01X81780Y51020D01*
G01X81780Y52019D01*
G01X83281Y52019D01*
G01X83281Y51020D01*
G37*
G36*
G01X83281Y47820D02*
G01X81780Y47820D01*
G01X81780Y48819D01*
G01X83281Y48819D01*
G01X83281Y47820D01*
G37*
G36*
G01X88180Y2820D02*
G01X86681Y2820D01*
G01X86681Y3819D01*
G01X88180Y3819D01*
G01X88180Y2820D01*
G37*
G36*
G01X88180Y6020D02*
G01X86681Y6020D01*
G01X86681Y7019D01*
G01X88180Y7019D01*
G01X88180Y6020D01*
G37*
G36*
G01X83281Y6020D02*
G01X81780Y6020D01*
G01X81780Y7019D01*
G01X83281Y7019D01*
G01X83281Y6020D01*
G37*
G36*
G01X83281Y2820D02*
G01X81780Y2820D01*
G01X81780Y3819D01*
G01X83281Y3819D01*
G01X83281Y2820D01*
G37*
G36*
G01X58180Y47820D02*
G01X56681Y47820D01*
G01X56681Y48819D01*
G01X58180Y48819D01*
G01X58180Y47820D01*
G37*
G36*
G01X58180Y51020D02*
G01X56681Y51020D01*
G01X56681Y52019D01*
G01X58180Y52019D01*
G01X58180Y51020D01*
G37*
G36*
G01X53281Y51020D02*
G01X51780Y51020D01*
G01X51780Y52019D01*
G01X53281Y52019D01*
G01X53281Y51020D01*
G37*
G36*
G01X53281Y47820D02*
G01X51780Y47820D01*
G01X51780Y48819D01*
G01X53281Y48819D01*
G01X53281Y47820D01*
G37*
G36*
G01X68180Y47820D02*
G01X66681Y47820D01*
G01X66681Y48819D01*
G01X68180Y48819D01*
G01X68180Y47820D01*
G37*
G36*
G01X68180Y51020D02*
G01X66681Y51020D01*
G01X66681Y52019D01*
G01X68180Y52019D01*
G01X68180Y51020D01*
G37*
G36*
G01X63281Y51020D02*
G01X61780Y51020D01*
G01X61780Y52019D01*
G01X63281Y52019D01*
G01X63281Y51020D01*
G37*
G36*
G01X63281Y47820D02*
G01X61780Y47820D01*
G01X61780Y48819D01*
G01X63281Y48819D01*
G01X63281Y47820D01*
G37*
G36*
G01X78180Y47820D02*
G01X76681Y47820D01*
G01X76681Y48819D01*
G01X78180Y48819D01*
G01X78180Y47820D01*
G37*
G36*
G01X78180Y51020D02*
G01X76681Y51020D01*
G01X76681Y52019D01*
G01X78180Y52019D01*
G01X78180Y51020D01*
G37*
G36*
G01X73281Y51020D02*
G01X71780Y51020D01*
G01X71780Y52019D01*
G01X73281Y52019D01*
G01X73281Y51020D01*
G37*
G36*
G01X73281Y47820D02*
G01X71780Y47820D01*
G01X71780Y48819D01*
G01X73281Y48819D01*
G01X73281Y47820D01*
G37*
G36*
G01X48180Y47820D02*
G01X46681Y47820D01*
G01X46681Y48819D01*
G01X48180Y48819D01*
G01X48180Y47820D01*
G37*
G36*
G01X48180Y51020D02*
G01X46681Y51020D01*
G01X46681Y52019D01*
G01X48180Y52019D01*
G01X48180Y51020D01*
G37*
G36*
G01X43281Y51020D02*
G01X41780Y51020D01*
G01X41780Y52019D01*
G01X43281Y52019D01*
G01X43281Y51020D01*
G37*
G36*
G01X43281Y47820D02*
G01X41780Y47820D01*
G01X41780Y48819D01*
G01X43281Y48819D01*
G01X43281Y47820D01*
G37*
G36*
G01X38180Y47820D02*
G01X36681Y47820D01*
G01X36681Y48819D01*
G01X38180Y48819D01*
G01X38180Y47820D01*
G37*
G36*
G01X38180Y51020D02*
G01X36681Y51020D01*
G01X36681Y52019D01*
G01X38180Y52019D01*
G01X38180Y51020D01*
G37*
G36*
G01X33281Y51020D02*
G01X31780Y51020D01*
G01X31780Y52019D01*
G01X33281Y52019D01*
G01X33281Y51020D01*
G37*
G36*
G01X33281Y47820D02*
G01X31780Y47820D01*
G01X31780Y48819D01*
G01X33281Y48819D01*
G01X33281Y47820D01*
G37*
G36*
G01X28180Y47820D02*
G01X26681Y47820D01*
G01X26681Y48819D01*
G01X28180Y48819D01*
G01X28180Y47820D01*
G37*
G36*
G01X28180Y51020D02*
G01X26681Y51020D01*
G01X26681Y52019D01*
G01X28180Y52019D01*
G01X28180Y51020D01*
G37*
G36*
G01X23281Y51020D02*
G01X21780Y51020D01*
G01X21780Y52019D01*
G01X23281Y52019D01*
G01X23281Y51020D01*
G37*
G36*
G01X23281Y47820D02*
G01X21780Y47820D01*
G01X21780Y48819D01*
G01X23281Y48819D01*
G01X23281Y47820D01*
G37*
G36*
G01X18180Y47820D02*
G01X16681Y47820D01*
G01X16681Y48819D01*
G01X18180Y48819D01*
G01X18180Y47820D01*
G37*
G36*
G01X18180Y51020D02*
G01X16681Y51020D01*
G01X16681Y52019D01*
G01X18180Y52019D01*
G01X18180Y51020D01*
G37*
G36*
G01X13281Y51020D02*
G01X11780Y51020D01*
G01X11780Y52019D01*
G01X13281Y52019D01*
G01X13281Y51020D01*
G37*
G36*
G01X13281Y47820D02*
G01X11780Y47820D01*
G01X11780Y48819D01*
G01X13281Y48819D01*
G01X13281Y47820D01*
G37*
G36*
G01X8180Y47820D02*
G01X6681Y47820D01*
G01X6681Y48819D01*
G01X8180Y48819D01*
G01X8180Y47820D01*
G37*
G36*
G01X8180Y51020D02*
G01X6681Y51020D01*
G01X6681Y52019D01*
G01X8180Y52019D01*
G01X8180Y51020D01*
G37*
G36*
G01X3281Y51020D02*
G01X1780Y51020D01*
G01X1780Y52019D01*
G01X3281Y52019D01*
G01X3281Y51020D01*
G37*
G36*
G01X3281Y47820D02*
G01X1780Y47820D01*
G01X1780Y48819D01*
G01X3281Y48819D01*
G01X3281Y47820D01*
G37*
G36*
G01X58180Y2820D02*
G01X56681Y2820D01*
G01X56681Y3819D01*
G01X58180Y3819D01*
G01X58180Y2820D01*
G37*
G36*
G01X58180Y6020D02*
G01X56681Y6020D01*
G01X56681Y7019D01*
G01X58180Y7019D01*
G01X58180Y6020D01*
G37*
G36*
G01X53281Y6020D02*
G01X51780Y6020D01*
G01X51780Y7019D01*
G01X53281Y7019D01*
G01X53281Y6020D01*
G37*
G36*
G01X53281Y2820D02*
G01X51780Y2820D01*
G01X51780Y3819D01*
G01X53281Y3819D01*
G01X53281Y2820D01*
G37*
G54D15*
G01X5129Y61110D03*
G01X6729Y61110D03*
G36*
G01X8180Y62820D02*
G01X6681Y62820D01*
G01X6681Y63819D01*
G01X8180Y63819D01*
G01X8180Y62820D01*
G37*
G36*
G01X8180Y66020D02*
G01X6681Y66020D01*
G01X6681Y67019D01*
G01X8180Y67019D01*
G01X8180Y66020D01*
G37*
G36*
G01X3281Y66020D02*
G01X1780Y66020D01*
G01X1780Y67019D01*
G01X3281Y67019D01*
G01X3281Y66020D01*
G37*
G36*
G01X3281Y62820D02*
G01X1780Y62820D01*
G01X1780Y63819D01*
G01X3281Y63819D01*
G01X3281Y62820D01*
G37*
G36*
G01X18180Y62820D02*
G01X16681Y62820D01*
G01X16681Y63819D01*
G01X18180Y63819D01*
G01X18180Y62820D01*
G37*
G36*
G01X18180Y66020D02*
G01X16681Y66020D01*
G01X16681Y67019D01*
G01X18180Y67019D01*
G01X18180Y66020D01*
G37*
G36*
G01X13281Y66020D02*
G01X11780Y66020D01*
G01X11780Y67019D01*
G01X13281Y67019D01*
G01X13281Y66020D01*
G37*
G36*
G01X13281Y62820D02*
G01X11780Y62820D01*
G01X11780Y63819D01*
G01X13281Y63819D01*
G01X13281Y62820D01*
G37*
G36*
G01X28180Y62820D02*
G01X26681Y62820D01*
G01X26681Y63819D01*
G01X28180Y63819D01*
G01X28180Y62820D01*
G37*
G36*
G01X28180Y66020D02*
G01X26681Y66020D01*
G01X26681Y67019D01*
G01X28180Y67019D01*
G01X28180Y66020D01*
G37*
G36*
G01X23281Y66020D02*
G01X21780Y66020D01*
G01X21780Y67019D01*
G01X23281Y67019D01*
G01X23281Y66020D01*
G37*
G36*
G01X23281Y62820D02*
G01X21780Y62820D01*
G01X21780Y63819D01*
G01X23281Y63819D01*
G01X23281Y62820D01*
G37*
G36*
G01X38180Y62820D02*
G01X36681Y62820D01*
G01X36681Y63819D01*
G01X38180Y63819D01*
G01X38180Y62820D01*
G37*
G36*
G01X38180Y66020D02*
G01X36681Y66020D01*
G01X36681Y67019D01*
G01X38180Y67019D01*
G01X38180Y66020D01*
G37*
G36*
G01X33281Y66020D02*
G01X31780Y66020D01*
G01X31780Y67019D01*
G01X33281Y67019D01*
G01X33281Y66020D01*
G37*
G36*
G01X33281Y62820D02*
G01X31780Y62820D01*
G01X31780Y63819D01*
G01X33281Y63819D01*
G01X33281Y62820D01*
G37*
G36*
G01X48180Y62820D02*
G01X46681Y62820D01*
G01X46681Y63819D01*
G01X48180Y63819D01*
G01X48180Y62820D01*
G37*
G36*
G01X48180Y66020D02*
G01X46681Y66020D01*
G01X46681Y67019D01*
G01X48180Y67019D01*
G01X48180Y66020D01*
G37*
G36*
G01X43281Y66020D02*
G01X41780Y66020D01*
G01X41780Y67019D01*
G01X43281Y67019D01*
G01X43281Y66020D01*
G37*
G36*
G01X43281Y62820D02*
G01X41780Y62820D01*
G01X41780Y63819D01*
G01X43281Y63819D01*
G01X43281Y62820D01*
G37*
G36*
G01X98180Y62820D02*
G01X96681Y62820D01*
G01X96681Y63819D01*
G01X98180Y63819D01*
G01X98180Y62820D01*
G37*
G36*
G01X98180Y66020D02*
G01X96681Y66020D01*
G01X96681Y67019D01*
G01X98180Y67019D01*
G01X98180Y66020D01*
G37*
G36*
G01X93281Y66020D02*
G01X91780Y66020D01*
G01X91780Y67019D01*
G01X93281Y67019D01*
G01X93281Y66020D01*
G37*
G36*
G01X93281Y62820D02*
G01X91780Y62820D01*
G01X91780Y63819D01*
G01X93281Y63819D01*
G01X93281Y62820D01*
G37*
G36*
G01X88180Y62820D02*
G01X86681Y62820D01*
G01X86681Y63819D01*
G01X88180Y63819D01*
G01X88180Y62820D01*
G37*
G36*
G01X88180Y66020D02*
G01X86681Y66020D01*
G01X86681Y67019D01*
G01X88180Y67019D01*
G01X88180Y66020D01*
G37*
G36*
G01X83281Y66020D02*
G01X81780Y66020D01*
G01X81780Y67019D01*
G01X83281Y67019D01*
G01X83281Y66020D01*
G37*
G36*
G01X83281Y62820D02*
G01X81780Y62820D01*
G01X81780Y63819D01*
G01X83281Y63819D01*
G01X83281Y62820D01*
G37*
G36*
G01X78180Y62820D02*
G01X76681Y62820D01*
G01X76681Y63819D01*
G01X78180Y63819D01*
G01X78180Y62820D01*
G37*
G36*
G01X78180Y66020D02*
G01X76681Y66020D01*
G01X76681Y67019D01*
G01X78180Y67019D01*
G01X78180Y66020D01*
G37*
G36*
G01X73281Y66020D02*
G01X71780Y66020D01*
G01X71780Y67019D01*
G01X73281Y67019D01*
G01X73281Y66020D01*
G37*
G36*
G01X73281Y62820D02*
G01X71780Y62820D01*
G01X71780Y63819D01*
G01X73281Y63819D01*
G01X73281Y62820D01*
G37*
G36*
G01X68180Y62820D02*
G01X66681Y62820D01*
G01X66681Y63819D01*
G01X68180Y63819D01*
G01X68180Y62820D01*
G37*
G36*
G01X68180Y66020D02*
G01X66681Y66020D01*
G01X66681Y67019D01*
G01X68180Y67019D01*
G01X68180Y66020D01*
G37*
G36*
G01X63281Y66020D02*
G01X61780Y66020D01*
G01X61780Y67019D01*
G01X63281Y67019D01*
G01X63281Y66020D01*
G37*
G36*
G01X63281Y62820D02*
G01X61780Y62820D01*
G01X61780Y63819D01*
G01X63281Y63819D01*
G01X63281Y62820D01*
G37*
G36*
G01X58180Y62820D02*
G01X56681Y62820D01*
G01X56681Y63819D01*
G01X58180Y63819D01*
G01X58180Y62820D01*
G37*
G36*
G01X58180Y66020D02*
G01X56681Y66020D01*
G01X56681Y67019D01*
G01X58180Y67019D01*
G01X58180Y66020D01*
G37*
G36*
G01X53281Y66020D02*
G01X51780Y66020D01*
G01X51780Y67019D01*
G01X53281Y67019D01*
G01X53281Y66020D01*
G37*
G36*
G01X53281Y62820D02*
G01X51780Y62820D01*
G01X51780Y63819D01*
G01X53281Y63819D01*
G01X53281Y62820D01*
G37*
M00*
M02*
