G04 Layer: TopSilkLayer*
G04 EasyEDA v6.4.7, 2021-01-21T12:31:56+00:00*
G04 8b80c43fe55248bfb6e8376c4506c8f5,74a5fafabdd44b6e8d5e0fe5421ccbd6,10*
G04 Gerber Generator version 0.2*
G04 Scale: 100 percent, Rotated: No, Reflected: No *
G04 Dimensions in millimeters *
G04 leading zeros omitted , absolute positions ,3 integer and 3 decimal *
%FSLAX33Y33*%
%MOMM*%
G90*
D02*

%ADD10C,0.254000*%

%LPD*%
G54D10*
G01X62480Y7420D02*
G01X67480Y7420D01*
G01X62480Y7300D02*
G01X62480Y7420D01*
G01X62480Y2420D02*
G01X62480Y2539D01*
G01X67480Y2420D02*
G01X62480Y2420D01*
G01X67480Y2539D02*
G01X67480Y2420D01*
G01X67480Y7420D02*
G01X67480Y7300D01*
G01X67480Y5689D02*
G01X67480Y4150D01*
G01X62480Y4150D02*
G01X62480Y5689D01*
G01X66480Y3120D02*
G01X66480Y2420D01*
G01X65780Y2420D01*
G01X66480Y3120D01*
G01X72480Y7420D02*
G01X77480Y7420D01*
G01X72480Y7300D02*
G01X72480Y7420D01*
G01X72480Y2420D02*
G01X72480Y2539D01*
G01X77480Y2420D02*
G01X72480Y2420D01*
G01X77480Y2539D02*
G01X77480Y2420D01*
G01X77480Y7420D02*
G01X77480Y7300D01*
G01X77480Y5689D02*
G01X77480Y4150D01*
G01X72480Y4150D02*
G01X72480Y5689D01*
G01X76480Y3120D02*
G01X76480Y2420D01*
G01X75780Y2420D01*
G01X76480Y3120D01*
G01X42480Y7420D02*
G01X47480Y7420D01*
G01X42480Y7300D02*
G01X42480Y7420D01*
G01X42480Y2420D02*
G01X42480Y2539D01*
G01X47480Y2420D02*
G01X42480Y2420D01*
G01X47480Y2539D02*
G01X47480Y2420D01*
G01X47480Y7420D02*
G01X47480Y7300D01*
G01X47480Y5689D02*
G01X47480Y4150D01*
G01X42480Y4150D02*
G01X42480Y5689D01*
G01X46480Y3120D02*
G01X46480Y2420D01*
G01X45780Y2420D01*
G01X46480Y3120D01*
G01X32480Y7420D02*
G01X37480Y7420D01*
G01X32480Y7300D02*
G01X32480Y7420D01*
G01X32480Y2420D02*
G01X32480Y2539D01*
G01X37480Y2420D02*
G01X32480Y2420D01*
G01X37480Y2539D02*
G01X37480Y2420D01*
G01X37480Y7420D02*
G01X37480Y7300D01*
G01X37480Y5689D02*
G01X37480Y4150D01*
G01X32480Y4150D02*
G01X32480Y5689D01*
G01X36480Y3120D02*
G01X36480Y2420D01*
G01X35780Y2420D01*
G01X36480Y3120D01*
G01X22480Y7420D02*
G01X27480Y7420D01*
G01X22480Y7300D02*
G01X22480Y7420D01*
G01X22480Y2420D02*
G01X22480Y2539D01*
G01X27480Y2420D02*
G01X22480Y2420D01*
G01X27480Y2539D02*
G01X27480Y2420D01*
G01X27480Y7420D02*
G01X27480Y7300D01*
G01X27480Y5689D02*
G01X27480Y4150D01*
G01X22480Y4150D02*
G01X22480Y5689D01*
G01X26480Y3120D02*
G01X26480Y2420D01*
G01X25780Y2420D01*
G01X26480Y3120D01*
G01X12480Y7420D02*
G01X17480Y7420D01*
G01X12480Y7300D02*
G01X12480Y7420D01*
G01X12480Y2420D02*
G01X12480Y2539D01*
G01X17480Y2420D02*
G01X12480Y2420D01*
G01X17480Y2539D02*
G01X17480Y2420D01*
G01X17480Y7420D02*
G01X17480Y7300D01*
G01X17480Y5689D02*
G01X17480Y4150D01*
G01X12480Y4150D02*
G01X12480Y5689D01*
G01X16480Y3120D02*
G01X16480Y2420D01*
G01X15780Y2420D01*
G01X16480Y3120D01*
G01X2480Y7420D02*
G01X7480Y7420D01*
G01X2480Y7300D02*
G01X2480Y7420D01*
G01X2480Y2420D02*
G01X2480Y2539D01*
G01X7480Y2420D02*
G01X2480Y2420D01*
G01X7480Y2539D02*
G01X7480Y2420D01*
G01X7480Y7420D02*
G01X7480Y7300D01*
G01X7480Y5689D02*
G01X7480Y4150D01*
G01X2480Y4150D02*
G01X2480Y5689D01*
G01X6480Y3120D02*
G01X6480Y2420D01*
G01X5780Y2420D01*
G01X6480Y3120D01*
G01X92480Y22420D02*
G01X97480Y22420D01*
G01X92480Y22300D02*
G01X92480Y22420D01*
G01X92480Y17420D02*
G01X92480Y17539D01*
G01X97480Y17420D02*
G01X92480Y17420D01*
G01X97480Y17539D02*
G01X97480Y17420D01*
G01X97480Y22420D02*
G01X97480Y22300D01*
G01X97480Y20689D02*
G01X97480Y19150D01*
G01X92480Y19150D02*
G01X92480Y20689D01*
G01X96480Y18120D02*
G01X96480Y17420D01*
G01X95780Y17420D01*
G01X96480Y18120D01*
G01X82480Y22420D02*
G01X87480Y22420D01*
G01X82480Y22300D02*
G01X82480Y22420D01*
G01X82480Y17420D02*
G01X82480Y17539D01*
G01X87480Y17420D02*
G01X82480Y17420D01*
G01X87480Y17539D02*
G01X87480Y17420D01*
G01X87480Y22420D02*
G01X87480Y22300D01*
G01X87480Y20689D02*
G01X87480Y19150D01*
G01X82480Y19150D02*
G01X82480Y20689D01*
G01X86480Y18120D02*
G01X86480Y17420D01*
G01X85780Y17420D01*
G01X86480Y18120D01*
G01X52480Y22420D02*
G01X57480Y22420D01*
G01X52480Y22300D02*
G01X52480Y22420D01*
G01X52480Y17420D02*
G01X52480Y17539D01*
G01X57480Y17420D02*
G01X52480Y17420D01*
G01X57480Y17539D02*
G01X57480Y17420D01*
G01X57480Y22420D02*
G01X57480Y22300D01*
G01X57480Y20689D02*
G01X57480Y19150D01*
G01X52480Y19150D02*
G01X52480Y20689D01*
G01X56480Y18120D02*
G01X56480Y17420D01*
G01X55780Y17420D01*
G01X56480Y18120D01*
G01X62480Y22420D02*
G01X67480Y22420D01*
G01X62480Y22300D02*
G01X62480Y22420D01*
G01X62480Y17420D02*
G01X62480Y17539D01*
G01X67480Y17420D02*
G01X62480Y17420D01*
G01X67480Y17539D02*
G01X67480Y17420D01*
G01X67480Y22420D02*
G01X67480Y22300D01*
G01X67480Y20689D02*
G01X67480Y19150D01*
G01X62480Y19150D02*
G01X62480Y20689D01*
G01X66480Y18120D02*
G01X66480Y17420D01*
G01X65780Y17420D01*
G01X66480Y18120D01*
G01X72480Y22420D02*
G01X77480Y22420D01*
G01X72480Y22300D02*
G01X72480Y22420D01*
G01X72480Y17420D02*
G01X72480Y17539D01*
G01X77480Y17420D02*
G01X72480Y17420D01*
G01X77480Y17539D02*
G01X77480Y17420D01*
G01X77480Y22420D02*
G01X77480Y22300D01*
G01X77480Y20689D02*
G01X77480Y19150D01*
G01X72480Y19150D02*
G01X72480Y20689D01*
G01X76480Y18120D02*
G01X76480Y17420D01*
G01X75780Y17420D01*
G01X76480Y18120D01*
G01X42480Y22420D02*
G01X47480Y22420D01*
G01X42480Y22300D02*
G01X42480Y22420D01*
G01X42480Y17420D02*
G01X42480Y17539D01*
G01X47480Y17420D02*
G01X42480Y17420D01*
G01X47480Y17539D02*
G01X47480Y17420D01*
G01X47480Y22420D02*
G01X47480Y22300D01*
G01X47480Y20689D02*
G01X47480Y19150D01*
G01X42480Y19150D02*
G01X42480Y20689D01*
G01X46480Y18120D02*
G01X46480Y17420D01*
G01X45780Y17420D01*
G01X46480Y18120D01*
G01X32480Y22420D02*
G01X37480Y22420D01*
G01X32480Y22300D02*
G01X32480Y22420D01*
G01X32480Y17420D02*
G01X32480Y17539D01*
G01X37480Y17420D02*
G01X32480Y17420D01*
G01X37480Y17539D02*
G01X37480Y17420D01*
G01X37480Y22420D02*
G01X37480Y22300D01*
G01X37480Y20689D02*
G01X37480Y19150D01*
G01X32480Y19150D02*
G01X32480Y20689D01*
G01X36480Y18120D02*
G01X36480Y17420D01*
G01X35780Y17420D01*
G01X36480Y18120D01*
G01X22480Y22420D02*
G01X27480Y22420D01*
G01X22480Y22300D02*
G01X22480Y22420D01*
G01X22480Y17420D02*
G01X22480Y17539D01*
G01X27480Y17420D02*
G01X22480Y17420D01*
G01X27480Y17539D02*
G01X27480Y17420D01*
G01X27480Y22420D02*
G01X27480Y22300D01*
G01X27480Y20689D02*
G01X27480Y19150D01*
G01X22480Y19150D02*
G01X22480Y20689D01*
G01X26480Y18120D02*
G01X26480Y17420D01*
G01X25780Y17420D01*
G01X26480Y18120D01*
G01X12480Y22420D02*
G01X17480Y22420D01*
G01X12480Y22300D02*
G01X12480Y22420D01*
G01X12480Y17420D02*
G01X12480Y17539D01*
G01X17480Y17420D02*
G01X12480Y17420D01*
G01X17480Y17539D02*
G01X17480Y17420D01*
G01X17480Y22420D02*
G01X17480Y22300D01*
G01X17480Y20689D02*
G01X17480Y19150D01*
G01X12480Y19150D02*
G01X12480Y20689D01*
G01X16480Y18120D02*
G01X16480Y17420D01*
G01X15780Y17420D01*
G01X16480Y18120D01*
G01X2480Y22420D02*
G01X7480Y22420D01*
G01X2480Y22300D02*
G01X2480Y22420D01*
G01X2480Y17420D02*
G01X2480Y17539D01*
G01X7480Y17420D02*
G01X2480Y17420D01*
G01X7480Y17539D02*
G01X7480Y17420D01*
G01X7480Y22420D02*
G01X7480Y22300D01*
G01X7480Y20689D02*
G01X7480Y19150D01*
G01X2480Y19150D02*
G01X2480Y20689D01*
G01X6480Y18120D02*
G01X6480Y17420D01*
G01X5780Y17420D01*
G01X6480Y18120D01*
G01X92480Y7420D02*
G01X97480Y7420D01*
G01X92480Y7300D02*
G01X92480Y7420D01*
G01X92480Y2420D02*
G01X92480Y2539D01*
G01X97480Y2420D02*
G01X92480Y2420D01*
G01X97480Y2539D02*
G01X97480Y2420D01*
G01X97480Y7420D02*
G01X97480Y7300D01*
G01X97480Y5689D02*
G01X97480Y4150D01*
G01X92480Y4150D02*
G01X92480Y5689D01*
G01X96480Y3120D02*
G01X96480Y2420D01*
G01X95780Y2420D01*
G01X96480Y3120D01*
G01X2480Y37420D02*
G01X7480Y37420D01*
G01X2480Y37300D02*
G01X2480Y37420D01*
G01X2480Y32420D02*
G01X2480Y32539D01*
G01X7480Y32420D02*
G01X2480Y32420D01*
G01X7480Y32539D02*
G01X7480Y32420D01*
G01X7480Y37420D02*
G01X7480Y37300D01*
G01X7480Y35689D02*
G01X7480Y34150D01*
G01X2480Y34150D02*
G01X2480Y35689D01*
G01X6480Y33120D02*
G01X6480Y32420D01*
G01X5780Y32420D01*
G01X6480Y33120D01*
G01X12480Y37420D02*
G01X17480Y37420D01*
G01X12480Y37300D02*
G01X12480Y37420D01*
G01X12480Y32420D02*
G01X12480Y32539D01*
G01X17480Y32420D02*
G01X12480Y32420D01*
G01X17480Y32539D02*
G01X17480Y32420D01*
G01X17480Y37420D02*
G01X17480Y37300D01*
G01X17480Y35689D02*
G01X17480Y34150D01*
G01X12480Y34150D02*
G01X12480Y35689D01*
G01X16480Y33120D02*
G01X16480Y32420D01*
G01X15780Y32420D01*
G01X16480Y33120D01*
G01X22480Y37420D02*
G01X27480Y37420D01*
G01X22480Y37300D02*
G01X22480Y37420D01*
G01X22480Y32420D02*
G01X22480Y32539D01*
G01X27480Y32420D02*
G01X22480Y32420D01*
G01X27480Y32539D02*
G01X27480Y32420D01*
G01X27480Y37420D02*
G01X27480Y37300D01*
G01X27480Y35689D02*
G01X27480Y34150D01*
G01X22480Y34150D02*
G01X22480Y35689D01*
G01X26480Y33120D02*
G01X26480Y32420D01*
G01X25780Y32420D01*
G01X26480Y33120D01*
G01X32480Y37420D02*
G01X37480Y37420D01*
G01X32480Y37300D02*
G01X32480Y37420D01*
G01X32480Y32420D02*
G01X32480Y32539D01*
G01X37480Y32420D02*
G01X32480Y32420D01*
G01X37480Y32539D02*
G01X37480Y32420D01*
G01X37480Y37420D02*
G01X37480Y37300D01*
G01X37480Y35689D02*
G01X37480Y34150D01*
G01X32480Y34150D02*
G01X32480Y35689D01*
G01X36480Y33120D02*
G01X36480Y32420D01*
G01X35780Y32420D01*
G01X36480Y33120D01*
G01X42480Y37420D02*
G01X47480Y37420D01*
G01X42480Y37300D02*
G01X42480Y37420D01*
G01X42480Y32420D02*
G01X42480Y32539D01*
G01X47480Y32420D02*
G01X42480Y32420D01*
G01X47480Y32539D02*
G01X47480Y32420D01*
G01X47480Y37420D02*
G01X47480Y37300D01*
G01X47480Y35689D02*
G01X47480Y34150D01*
G01X42480Y34150D02*
G01X42480Y35689D01*
G01X46480Y33120D02*
G01X46480Y32420D01*
G01X45780Y32420D01*
G01X46480Y33120D01*
G01X72480Y37420D02*
G01X77480Y37420D01*
G01X72480Y37300D02*
G01X72480Y37420D01*
G01X72480Y32420D02*
G01X72480Y32539D01*
G01X77480Y32420D02*
G01X72480Y32420D01*
G01X77480Y32539D02*
G01X77480Y32420D01*
G01X77480Y37420D02*
G01X77480Y37300D01*
G01X77480Y35689D02*
G01X77480Y34150D01*
G01X72480Y34150D02*
G01X72480Y35689D01*
G01X76480Y33120D02*
G01X76480Y32420D01*
G01X75780Y32420D01*
G01X76480Y33120D01*
G01X62480Y37420D02*
G01X67480Y37420D01*
G01X62480Y37300D02*
G01X62480Y37420D01*
G01X62480Y32420D02*
G01X62480Y32539D01*
G01X67480Y32420D02*
G01X62480Y32420D01*
G01X67480Y32539D02*
G01X67480Y32420D01*
G01X67480Y37420D02*
G01X67480Y37300D01*
G01X67480Y35689D02*
G01X67480Y34150D01*
G01X62480Y34150D02*
G01X62480Y35689D01*
G01X66480Y33120D02*
G01X66480Y32420D01*
G01X65780Y32420D01*
G01X66480Y33120D01*
G01X52480Y37420D02*
G01X57480Y37420D01*
G01X52480Y37300D02*
G01X52480Y37420D01*
G01X52480Y32420D02*
G01X52480Y32539D01*
G01X57480Y32420D02*
G01X52480Y32420D01*
G01X57480Y32539D02*
G01X57480Y32420D01*
G01X57480Y37420D02*
G01X57480Y37300D01*
G01X57480Y35689D02*
G01X57480Y34150D01*
G01X52480Y34150D02*
G01X52480Y35689D01*
G01X56480Y33120D02*
G01X56480Y32420D01*
G01X55780Y32420D01*
G01X56480Y33120D01*
G01X82480Y37420D02*
G01X87480Y37420D01*
G01X82480Y37300D02*
G01X82480Y37420D01*
G01X82480Y32420D02*
G01X82480Y32539D01*
G01X87480Y32420D02*
G01X82480Y32420D01*
G01X87480Y32539D02*
G01X87480Y32420D01*
G01X87480Y37420D02*
G01X87480Y37300D01*
G01X87480Y35689D02*
G01X87480Y34150D01*
G01X82480Y34150D02*
G01X82480Y35689D01*
G01X86480Y33120D02*
G01X86480Y32420D01*
G01X85780Y32420D01*
G01X86480Y33120D01*
G01X92480Y37420D02*
G01X97480Y37420D01*
G01X92480Y37300D02*
G01X92480Y37420D01*
G01X92480Y32420D02*
G01X92480Y32539D01*
G01X97480Y32420D02*
G01X92480Y32420D01*
G01X97480Y32539D02*
G01X97480Y32420D01*
G01X97480Y37420D02*
G01X97480Y37300D01*
G01X97480Y35689D02*
G01X97480Y34150D01*
G01X92480Y34150D02*
G01X92480Y35689D01*
G01X96480Y33120D02*
G01X96480Y32420D01*
G01X95780Y32420D01*
G01X96480Y33120D01*
G01X92480Y52420D02*
G01X97480Y52420D01*
G01X92480Y52300D02*
G01X92480Y52420D01*
G01X92480Y47420D02*
G01X92480Y47539D01*
G01X97480Y47420D02*
G01X92480Y47420D01*
G01X97480Y47539D02*
G01X97480Y47420D01*
G01X97480Y52420D02*
G01X97480Y52300D01*
G01X97480Y50689D02*
G01X97480Y49150D01*
G01X92480Y49150D02*
G01X92480Y50689D01*
G01X96480Y48120D02*
G01X96480Y47420D01*
G01X95780Y47420D01*
G01X96480Y48120D01*
G01X82480Y52420D02*
G01X87480Y52420D01*
G01X82480Y52300D02*
G01X82480Y52420D01*
G01X82480Y47420D02*
G01X82480Y47539D01*
G01X87480Y47420D02*
G01X82480Y47420D01*
G01X87480Y47539D02*
G01X87480Y47420D01*
G01X87480Y52420D02*
G01X87480Y52300D01*
G01X87480Y50689D02*
G01X87480Y49150D01*
G01X82480Y49150D02*
G01X82480Y50689D01*
G01X86480Y48120D02*
G01X86480Y47420D01*
G01X85780Y47420D01*
G01X86480Y48120D01*
G01X82480Y7420D02*
G01X87480Y7420D01*
G01X82480Y7300D02*
G01X82480Y7420D01*
G01X82480Y2420D02*
G01X82480Y2539D01*
G01X87480Y2420D02*
G01X82480Y2420D01*
G01X87480Y2539D02*
G01X87480Y2420D01*
G01X87480Y7420D02*
G01X87480Y7300D01*
G01X87480Y5689D02*
G01X87480Y4150D01*
G01X82480Y4150D02*
G01X82480Y5689D01*
G01X86480Y3120D02*
G01X86480Y2420D01*
G01X85780Y2420D01*
G01X86480Y3120D01*
G01X52480Y52420D02*
G01X57480Y52420D01*
G01X52480Y52300D02*
G01X52480Y52420D01*
G01X52480Y47420D02*
G01X52480Y47539D01*
G01X57480Y47420D02*
G01X52480Y47420D01*
G01X57480Y47539D02*
G01X57480Y47420D01*
G01X57480Y52420D02*
G01X57480Y52300D01*
G01X57480Y50689D02*
G01X57480Y49150D01*
G01X52480Y49150D02*
G01X52480Y50689D01*
G01X56480Y48120D02*
G01X56480Y47420D01*
G01X55780Y47420D01*
G01X56480Y48120D01*
G01X62480Y52420D02*
G01X67480Y52420D01*
G01X62480Y52300D02*
G01X62480Y52420D01*
G01X62480Y47420D02*
G01X62480Y47539D01*
G01X67480Y47420D02*
G01X62480Y47420D01*
G01X67480Y47539D02*
G01X67480Y47420D01*
G01X67480Y52420D02*
G01X67480Y52300D01*
G01X67480Y50689D02*
G01X67480Y49150D01*
G01X62480Y49150D02*
G01X62480Y50689D01*
G01X66480Y48120D02*
G01X66480Y47420D01*
G01X65780Y47420D01*
G01X66480Y48120D01*
G01X72480Y52420D02*
G01X77480Y52420D01*
G01X72480Y52300D02*
G01X72480Y52420D01*
G01X72480Y47420D02*
G01X72480Y47539D01*
G01X77480Y47420D02*
G01X72480Y47420D01*
G01X77480Y47539D02*
G01X77480Y47420D01*
G01X77480Y52420D02*
G01X77480Y52300D01*
G01X77480Y50689D02*
G01X77480Y49150D01*
G01X72480Y49150D02*
G01X72480Y50689D01*
G01X76480Y48120D02*
G01X76480Y47420D01*
G01X75780Y47420D01*
G01X76480Y48120D01*
G01X42480Y52420D02*
G01X47480Y52420D01*
G01X42480Y52300D02*
G01X42480Y52420D01*
G01X42480Y47420D02*
G01X42480Y47539D01*
G01X47480Y47420D02*
G01X42480Y47420D01*
G01X47480Y47539D02*
G01X47480Y47420D01*
G01X47480Y52420D02*
G01X47480Y52300D01*
G01X47480Y50689D02*
G01X47480Y49150D01*
G01X42480Y49150D02*
G01X42480Y50689D01*
G01X46480Y48120D02*
G01X46480Y47420D01*
G01X45780Y47420D01*
G01X46480Y48120D01*
G01X32480Y52420D02*
G01X37480Y52420D01*
G01X32480Y52300D02*
G01X32480Y52420D01*
G01X32480Y47420D02*
G01X32480Y47539D01*
G01X37480Y47420D02*
G01X32480Y47420D01*
G01X37480Y47539D02*
G01X37480Y47420D01*
G01X37480Y52420D02*
G01X37480Y52300D01*
G01X37480Y50689D02*
G01X37480Y49150D01*
G01X32480Y49150D02*
G01X32480Y50689D01*
G01X36480Y48120D02*
G01X36480Y47420D01*
G01X35780Y47420D01*
G01X36480Y48120D01*
G01X22480Y52420D02*
G01X27480Y52420D01*
G01X22480Y52300D02*
G01X22480Y52420D01*
G01X22480Y47420D02*
G01X22480Y47539D01*
G01X27480Y47420D02*
G01X22480Y47420D01*
G01X27480Y47539D02*
G01X27480Y47420D01*
G01X27480Y52420D02*
G01X27480Y52300D01*
G01X27480Y50689D02*
G01X27480Y49150D01*
G01X22480Y49150D02*
G01X22480Y50689D01*
G01X26480Y48120D02*
G01X26480Y47420D01*
G01X25780Y47420D01*
G01X26480Y48120D01*
G01X12480Y52420D02*
G01X17480Y52420D01*
G01X12480Y52300D02*
G01X12480Y52420D01*
G01X12480Y47420D02*
G01X12480Y47539D01*
G01X17480Y47420D02*
G01X12480Y47420D01*
G01X17480Y47539D02*
G01X17480Y47420D01*
G01X17480Y52420D02*
G01X17480Y52300D01*
G01X17480Y50689D02*
G01X17480Y49150D01*
G01X12480Y49150D02*
G01X12480Y50689D01*
G01X16480Y48120D02*
G01X16480Y47420D01*
G01X15780Y47420D01*
G01X16480Y48120D01*
G01X2480Y52420D02*
G01X7480Y52420D01*
G01X2480Y52300D02*
G01X2480Y52420D01*
G01X2480Y47420D02*
G01X2480Y47539D01*
G01X7480Y47420D02*
G01X2480Y47420D01*
G01X7480Y47539D02*
G01X7480Y47420D01*
G01X7480Y52420D02*
G01X7480Y52300D01*
G01X7480Y50689D02*
G01X7480Y49150D01*
G01X2480Y49150D02*
G01X2480Y50689D01*
G01X6480Y48120D02*
G01X6480Y47420D01*
G01X5780Y47420D01*
G01X6480Y48120D01*
G01X52480Y7420D02*
G01X57480Y7420D01*
G01X52480Y7300D02*
G01X52480Y7420D01*
G01X52480Y2420D02*
G01X52480Y2539D01*
G01X57480Y2420D02*
G01X52480Y2420D01*
G01X57480Y2539D02*
G01X57480Y2420D01*
G01X57480Y7420D02*
G01X57480Y7300D01*
G01X57480Y5689D02*
G01X57480Y4150D01*
G01X52480Y4150D02*
G01X52480Y5689D01*
G01X56480Y3120D02*
G01X56480Y2420D01*
G01X55780Y2420D01*
G01X56480Y3120D01*
G01X7479Y60309D02*
G01X7479Y61910D01*
G01X5628Y61904D02*
G01X4379Y61904D01*
G01X5628Y60304D02*
G01X4379Y60304D01*
G01X6229Y61910D02*
G01X7479Y61910D01*
G01X6229Y60309D02*
G01X7479Y60309D01*
G01X4379Y60304D02*
G01X4379Y61904D01*
G01X2480Y67420D02*
G01X7480Y67420D01*
G01X2480Y67300D02*
G01X2480Y67420D01*
G01X2480Y62420D02*
G01X2480Y62539D01*
G01X7480Y62420D02*
G01X2480Y62420D01*
G01X7480Y62539D02*
G01X7480Y62420D01*
G01X7480Y67420D02*
G01X7480Y67300D01*
G01X7480Y65689D02*
G01X7480Y64150D01*
G01X2480Y64150D02*
G01X2480Y65689D01*
G01X6480Y63120D02*
G01X6480Y62420D01*
G01X5780Y62420D01*
G01X6480Y63120D01*
G01X12480Y67420D02*
G01X17480Y67420D01*
G01X12480Y67300D02*
G01X12480Y67420D01*
G01X12480Y62420D02*
G01X12480Y62539D01*
G01X17480Y62420D02*
G01X12480Y62420D01*
G01X17480Y62539D02*
G01X17480Y62420D01*
G01X17480Y67420D02*
G01X17480Y67300D01*
G01X17480Y65689D02*
G01X17480Y64150D01*
G01X12480Y64150D02*
G01X12480Y65689D01*
G01X16480Y63120D02*
G01X16480Y62420D01*
G01X15780Y62420D01*
G01X16480Y63120D01*
G01X22480Y67420D02*
G01X27480Y67420D01*
G01X22480Y67300D02*
G01X22480Y67420D01*
G01X22480Y62420D02*
G01X22480Y62539D01*
G01X27480Y62420D02*
G01X22480Y62420D01*
G01X27480Y62539D02*
G01X27480Y62420D01*
G01X27480Y67420D02*
G01X27480Y67300D01*
G01X27480Y65689D02*
G01X27480Y64150D01*
G01X22480Y64150D02*
G01X22480Y65689D01*
G01X26480Y63120D02*
G01X26480Y62420D01*
G01X25780Y62420D01*
G01X26480Y63120D01*
G01X32480Y67420D02*
G01X37480Y67420D01*
G01X32480Y67300D02*
G01X32480Y67420D01*
G01X32480Y62420D02*
G01X32480Y62539D01*
G01X37480Y62420D02*
G01X32480Y62420D01*
G01X37480Y62539D02*
G01X37480Y62420D01*
G01X37480Y67420D02*
G01X37480Y67300D01*
G01X37480Y65689D02*
G01X37480Y64150D01*
G01X32480Y64150D02*
G01X32480Y65689D01*
G01X36480Y63120D02*
G01X36480Y62420D01*
G01X35780Y62420D01*
G01X36480Y63120D01*
G01X42480Y67420D02*
G01X47480Y67420D01*
G01X42480Y67300D02*
G01X42480Y67420D01*
G01X42480Y62420D02*
G01X42480Y62539D01*
G01X47480Y62420D02*
G01X42480Y62420D01*
G01X47480Y62539D02*
G01X47480Y62420D01*
G01X47480Y67420D02*
G01X47480Y67300D01*
G01X47480Y65689D02*
G01X47480Y64150D01*
G01X42480Y64150D02*
G01X42480Y65689D01*
G01X46480Y63120D02*
G01X46480Y62420D01*
G01X45780Y62420D01*
G01X46480Y63120D01*
G01X92480Y67420D02*
G01X97480Y67420D01*
G01X92480Y67300D02*
G01X92480Y67420D01*
G01X92480Y62420D02*
G01X92480Y62539D01*
G01X97480Y62420D02*
G01X92480Y62420D01*
G01X97480Y62539D02*
G01X97480Y62420D01*
G01X97480Y67420D02*
G01X97480Y67300D01*
G01X97480Y65689D02*
G01X97480Y64150D01*
G01X92480Y64150D02*
G01X92480Y65689D01*
G01X96480Y63120D02*
G01X96480Y62420D01*
G01X95780Y62420D01*
G01X96480Y63120D01*
G01X82480Y67420D02*
G01X87480Y67420D01*
G01X82480Y67300D02*
G01X82480Y67420D01*
G01X82480Y62420D02*
G01X82480Y62539D01*
G01X87480Y62420D02*
G01X82480Y62420D01*
G01X87480Y62539D02*
G01X87480Y62420D01*
G01X87480Y67420D02*
G01X87480Y67300D01*
G01X87480Y65689D02*
G01X87480Y64150D01*
G01X82480Y64150D02*
G01X82480Y65689D01*
G01X86480Y63120D02*
G01X86480Y62420D01*
G01X85780Y62420D01*
G01X86480Y63120D01*
G01X72480Y67420D02*
G01X77480Y67420D01*
G01X72480Y67300D02*
G01X72480Y67420D01*
G01X72480Y62420D02*
G01X72480Y62539D01*
G01X77480Y62420D02*
G01X72480Y62420D01*
G01X77480Y62539D02*
G01X77480Y62420D01*
G01X77480Y67420D02*
G01X77480Y67300D01*
G01X77480Y65689D02*
G01X77480Y64150D01*
G01X72480Y64150D02*
G01X72480Y65689D01*
G01X76480Y63120D02*
G01X76480Y62420D01*
G01X75780Y62420D01*
G01X76480Y63120D01*
G01X62480Y67420D02*
G01X67480Y67420D01*
G01X62480Y67300D02*
G01X62480Y67420D01*
G01X62480Y62420D02*
G01X62480Y62539D01*
G01X67480Y62420D02*
G01X62480Y62420D01*
G01X67480Y62539D02*
G01X67480Y62420D01*
G01X67480Y67420D02*
G01X67480Y67300D01*
G01X67480Y65689D02*
G01X67480Y64150D01*
G01X62480Y64150D02*
G01X62480Y65689D01*
G01X66480Y63120D02*
G01X66480Y62420D01*
G01X65780Y62420D01*
G01X66480Y63120D01*
G01X52480Y67420D02*
G01X57480Y67420D01*
G01X52480Y67300D02*
G01X52480Y67420D01*
G01X52480Y62420D02*
G01X52480Y62539D01*
G01X57480Y62420D02*
G01X52480Y62420D01*
G01X57480Y62539D02*
G01X57480Y62420D01*
G01X57480Y67420D02*
G01X57480Y67300D01*
G01X57480Y65689D02*
G01X57480Y64150D01*
G01X52480Y64150D02*
G01X52480Y65689D01*
G01X56480Y63120D02*
G01X56480Y62420D01*
G01X55780Y62420D01*
G01X56480Y63120D01*
G75*
G01X66482Y4920D02*
G03X66482Y4920I-1500J0D01*
G01*
G75*
G01X62081Y7420D02*
G03X62081Y7420I-100J0D01*
G01*
G75*
G01X76482Y4920D02*
G03X76482Y4920I-1500J0D01*
G01*
G75*
G01X72081Y7420D02*
G03X72081Y7420I-100J0D01*
G01*
G75*
G01X46482Y4920D02*
G03X46482Y4920I-1500J0D01*
G01*
G75*
G01X42081Y7420D02*
G03X42081Y7420I-100J0D01*
G01*
G75*
G01X36482Y4920D02*
G03X36482Y4920I-1500J0D01*
G01*
G75*
G01X32081Y7420D02*
G03X32081Y7420I-100J0D01*
G01*
G75*
G01X26482Y4920D02*
G03X26482Y4920I-1500J0D01*
G01*
G75*
G01X22081Y7420D02*
G03X22081Y7420I-100J0D01*
G01*
G75*
G01X16482Y4920D02*
G03X16482Y4920I-1500J0D01*
G01*
G75*
G01X12081Y7420D02*
G03X12081Y7420I-100J0D01*
G01*
G75*
G01X6482Y4920D02*
G03X6482Y4920I-1500J0D01*
G01*
G75*
G01X2081Y7420D02*
G03X2081Y7420I-100J0D01*
G01*
G75*
G01X96482Y19920D02*
G03X96482Y19920I-1500J0D01*
G01*
G75*
G01X92081Y22420D02*
G03X92081Y22420I-100J0D01*
G01*
G75*
G01X86482Y19920D02*
G03X86482Y19920I-1500J0D01*
G01*
G75*
G01X82081Y22420D02*
G03X82081Y22420I-100J0D01*
G01*
G75*
G01X56482Y19920D02*
G03X56482Y19920I-1500J0D01*
G01*
G75*
G01X52081Y22420D02*
G03X52081Y22420I-100J0D01*
G01*
G75*
G01X66482Y19920D02*
G03X66482Y19920I-1500J0D01*
G01*
G75*
G01X62081Y22420D02*
G03X62081Y22420I-100J0D01*
G01*
G75*
G01X76482Y19920D02*
G03X76482Y19920I-1500J0D01*
G01*
G75*
G01X72081Y22420D02*
G03X72081Y22420I-100J0D01*
G01*
G75*
G01X46482Y19920D02*
G03X46482Y19920I-1500J0D01*
G01*
G75*
G01X42081Y22420D02*
G03X42081Y22420I-100J0D01*
G01*
G75*
G01X36482Y19920D02*
G03X36482Y19920I-1500J0D01*
G01*
G75*
G01X32081Y22420D02*
G03X32081Y22420I-100J0D01*
G01*
G75*
G01X26482Y19920D02*
G03X26482Y19920I-1500J0D01*
G01*
G75*
G01X22081Y22420D02*
G03X22081Y22420I-100J0D01*
G01*
G75*
G01X16482Y19920D02*
G03X16482Y19920I-1500J0D01*
G01*
G75*
G01X12081Y22420D02*
G03X12081Y22420I-100J0D01*
G01*
G75*
G01X6482Y19920D02*
G03X6482Y19920I-1500J0D01*
G01*
G75*
G01X2081Y22420D02*
G03X2081Y22420I-100J0D01*
G01*
G75*
G01X96482Y4920D02*
G03X96482Y4920I-1500J0D01*
G01*
G75*
G01X92081Y7420D02*
G03X92081Y7420I-100J0D01*
G01*
G75*
G01X6482Y34920D02*
G03X6482Y34920I-1500J0D01*
G01*
G75*
G01X2081Y37420D02*
G03X2081Y37420I-100J0D01*
G01*
G75*
G01X16482Y34920D02*
G03X16482Y34920I-1500J0D01*
G01*
G75*
G01X12081Y37420D02*
G03X12081Y37420I-100J0D01*
G01*
G75*
G01X26482Y34920D02*
G03X26482Y34920I-1500J0D01*
G01*
G75*
G01X22081Y37420D02*
G03X22081Y37420I-100J0D01*
G01*
G75*
G01X36482Y34920D02*
G03X36482Y34920I-1500J0D01*
G01*
G75*
G01X32081Y37420D02*
G03X32081Y37420I-100J0D01*
G01*
G75*
G01X46482Y34920D02*
G03X46482Y34920I-1500J0D01*
G01*
G75*
G01X42081Y37420D02*
G03X42081Y37420I-100J0D01*
G01*
G75*
G01X76482Y34920D02*
G03X76482Y34920I-1500J0D01*
G01*
G75*
G01X72081Y37420D02*
G03X72081Y37420I-100J0D01*
G01*
G75*
G01X66482Y34920D02*
G03X66482Y34920I-1500J0D01*
G01*
G75*
G01X62081Y37420D02*
G03X62081Y37420I-100J0D01*
G01*
G75*
G01X56482Y34920D02*
G03X56482Y34920I-1500J0D01*
G01*
G75*
G01X52081Y37420D02*
G03X52081Y37420I-100J0D01*
G01*
G75*
G01X86482Y34920D02*
G03X86482Y34920I-1500J0D01*
G01*
G75*
G01X82081Y37420D02*
G03X82081Y37420I-100J0D01*
G01*
G75*
G01X96482Y34920D02*
G03X96482Y34920I-1500J0D01*
G01*
G75*
G01X92081Y37420D02*
G03X92081Y37420I-100J0D01*
G01*
G75*
G01X96482Y49920D02*
G03X96482Y49920I-1500J0D01*
G01*
G75*
G01X92081Y52420D02*
G03X92081Y52420I-100J0D01*
G01*
G75*
G01X86482Y49920D02*
G03X86482Y49920I-1500J0D01*
G01*
G75*
G01X82081Y52420D02*
G03X82081Y52420I-100J0D01*
G01*
G75*
G01X86482Y4920D02*
G03X86482Y4920I-1500J0D01*
G01*
G75*
G01X82081Y7420D02*
G03X82081Y7420I-100J0D01*
G01*
G75*
G01X56482Y49920D02*
G03X56482Y49920I-1500J0D01*
G01*
G75*
G01X52081Y52420D02*
G03X52081Y52420I-100J0D01*
G01*
G75*
G01X66482Y49920D02*
G03X66482Y49920I-1500J0D01*
G01*
G75*
G01X62081Y52420D02*
G03X62081Y52420I-100J0D01*
G01*
G75*
G01X76482Y49920D02*
G03X76482Y49920I-1500J0D01*
G01*
G75*
G01X72081Y52420D02*
G03X72081Y52420I-100J0D01*
G01*
G75*
G01X46482Y49920D02*
G03X46482Y49920I-1500J0D01*
G01*
G75*
G01X42081Y52420D02*
G03X42081Y52420I-100J0D01*
G01*
G75*
G01X36482Y49920D02*
G03X36482Y49920I-1500J0D01*
G01*
G75*
G01X32081Y52420D02*
G03X32081Y52420I-100J0D01*
G01*
G75*
G01X26482Y49920D02*
G03X26482Y49920I-1500J0D01*
G01*
G75*
G01X22081Y52420D02*
G03X22081Y52420I-100J0D01*
G01*
G75*
G01X16482Y49920D02*
G03X16482Y49920I-1500J0D01*
G01*
G75*
G01X12081Y52420D02*
G03X12081Y52420I-100J0D01*
G01*
G75*
G01X6482Y49920D02*
G03X6482Y49920I-1500J0D01*
G01*
G75*
G01X2081Y52420D02*
G03X2081Y52420I-100J0D01*
G01*
G75*
G01X56482Y4920D02*
G03X56482Y4920I-1500J0D01*
G01*
G75*
G01X52081Y7420D02*
G03X52081Y7420I-100J0D01*
G01*
G75*
G01X6482Y64920D02*
G03X6482Y64920I-1500J0D01*
G01*
G75*
G01X2081Y67420D02*
G03X2081Y67420I-100J0D01*
G01*
G75*
G01X16482Y64920D02*
G03X16482Y64920I-1500J0D01*
G01*
G75*
G01X12081Y67420D02*
G03X12081Y67420I-100J0D01*
G01*
G75*
G01X26482Y64920D02*
G03X26482Y64920I-1500J0D01*
G01*
G75*
G01X22081Y67420D02*
G03X22081Y67420I-100J0D01*
G01*
G75*
G01X36482Y64920D02*
G03X36482Y64920I-1500J0D01*
G01*
G75*
G01X32081Y67420D02*
G03X32081Y67420I-100J0D01*
G01*
G75*
G01X46482Y64920D02*
G03X46482Y64920I-1500J0D01*
G01*
G75*
G01X42081Y67420D02*
G03X42081Y67420I-100J0D01*
G01*
G75*
G01X96482Y64920D02*
G03X96482Y64920I-1500J0D01*
G01*
G75*
G01X92081Y67420D02*
G03X92081Y67420I-100J0D01*
G01*
G75*
G01X86482Y64920D02*
G03X86482Y64920I-1500J0D01*
G01*
G75*
G01X82081Y67420D02*
G03X82081Y67420I-100J0D01*
G01*
G75*
G01X76482Y64920D02*
G03X76482Y64920I-1500J0D01*
G01*
G75*
G01X72081Y67420D02*
G03X72081Y67420I-100J0D01*
G01*
G75*
G01X66482Y64920D02*
G03X66482Y64920I-1500J0D01*
G01*
G75*
G01X62081Y67420D02*
G03X62081Y67420I-100J0D01*
G01*
G75*
G01X56482Y64920D02*
G03X56482Y64920I-1500J0D01*
G01*
G75*
G01X52081Y67420D02*
G03X52081Y67420I-100J0D01*
G01*
M00*
M02*
