G04 Layer: BottomPasteMaskLayer*
G04 EasyEDA v6.4.7, 2021-01-21T12:31:56+00:00*
G04 8b80c43fe55248bfb6e8376c4506c8f5,74a5fafabdd44b6e8d5e0fe5421ccbd6,10*
G04 Gerber Generator version 0.2*
G04 Scale: 100 percent, Rotated: No, Reflected: No *
G04 Dimensions in millimeters *
G04 leading zeros omitted , absolute positions ,3 integer and 3 decimal *
%FSLAX33Y33*%
%MOMM*%
G90*
D02*

%ADD20C,0.599999*%

%LPD*%
G54D20*
G01X88773Y60516D02*
G01X88773Y59316D01*
G01X87503Y60516D02*
G01X87503Y59316D01*
G01X86233Y60516D02*
G01X86233Y59316D01*
G01X84963Y60516D02*
G01X84963Y59316D01*
G01X83693Y60516D02*
G01X83693Y59316D01*
G01X82423Y60516D02*
G01X82423Y59316D01*
G01X81153Y60516D02*
G01X81153Y59316D01*
G01X79883Y60516D02*
G01X79883Y59316D01*
G01X88773Y66459D02*
G01X88773Y65259D01*
G01X87503Y66459D02*
G01X87503Y65259D01*
G01X86233Y66459D02*
G01X86233Y65259D01*
G01X84963Y66459D02*
G01X84963Y65259D01*
G01X83693Y66459D02*
G01X83693Y65259D01*
G01X82423Y66459D02*
G01X82423Y65259D01*
G01X81153Y66459D02*
G01X81153Y65259D01*
G01X79883Y66459D02*
G01X79883Y65259D01*
G36*
G01X57459Y30540D02*
G01X57459Y28939D01*
G01X60461Y28939D01*
G01X60461Y30540D01*
G01X57459Y30540D01*
G37*
G36*
G01X60453Y24369D02*
G01X60453Y25970D01*
G01X57454Y25970D01*
G01X57454Y24369D01*
G01X60453Y24369D01*
G37*
G36*
G01X69437Y24455D02*
G01X69437Y30454D01*
G01X62938Y30454D01*
G01X62938Y24455D01*
G01X69437Y24455D01*
G37*
G36*
G01X41877Y26655D02*
G01X41877Y24254D01*
G01X42877Y24254D01*
G01X42877Y26655D01*
G01X41877Y26655D01*
G37*
G36*
G01X41877Y30655D02*
G01X41877Y28254D01*
G01X42877Y28254D01*
G01X42877Y30655D01*
G01X41877Y30655D01*
G37*
G36*
G01X55561Y30516D02*
G01X54561Y30516D01*
G01X54561Y28966D01*
G01X55561Y28966D01*
G01X55561Y30516D01*
G37*
G36*
G01X53561Y30516D02*
G01X52561Y30516D01*
G01X52561Y28966D01*
G01X53561Y28966D01*
G01X53561Y30516D01*
G37*
G36*
G01X20137Y60205D02*
G01X18137Y60205D01*
G01X18137Y59205D01*
G01X20137Y59205D01*
G01X20137Y60205D01*
G37*
G36*
G01X20137Y58205D02*
G01X18137Y58205D01*
G01X18137Y57205D01*
G01X20137Y57205D01*
G01X20137Y58205D01*
G37*
G36*
G01X20137Y56205D02*
G01X18137Y56205D01*
G01X18137Y55205D01*
G01X20137Y55205D01*
G01X20137Y56205D01*
G37*
G36*
G01X20137Y54205D02*
G01X18137Y54205D01*
G01X18137Y53205D01*
G01X20137Y53205D01*
G01X20137Y54205D01*
G37*
G36*
G01X20137Y52205D02*
G01X18137Y52205D01*
G01X18137Y51205D01*
G01X20137Y51205D01*
G01X20137Y52205D01*
G37*
G36*
G01X20137Y50205D02*
G01X18137Y50205D01*
G01X18137Y49205D01*
G01X20137Y49205D01*
G01X20137Y50205D01*
G37*
G36*
G01X20137Y48205D02*
G01X18137Y48205D01*
G01X18137Y47205D01*
G01X20137Y47205D01*
G01X20137Y48205D01*
G37*
G36*
G01X20136Y46205D02*
G01X18136Y46205D01*
G01X18136Y45205D01*
G01X20136Y45205D01*
G01X20136Y46205D01*
G37*
G36*
G01X16637Y43225D02*
G01X16637Y45225D01*
G01X15637Y45225D01*
G01X15637Y43225D01*
G01X16637Y43225D01*
G37*
G36*
G01X14637Y43227D02*
G01X14637Y45227D01*
G01X13637Y45227D01*
G01X13637Y43227D01*
G01X14637Y43227D01*
G37*
G36*
G01X12637Y43226D02*
G01X12637Y45226D01*
G01X11637Y45226D01*
G01X11637Y43226D01*
G01X12637Y43226D01*
G37*
G36*
G01X10637Y43226D02*
G01X10637Y45226D01*
G01X9637Y45226D01*
G01X9637Y43226D01*
G01X10637Y43226D01*
G37*
G36*
G01X8637Y43226D02*
G01X8637Y45226D01*
G01X7637Y45226D01*
G01X7637Y43226D01*
G01X8637Y43226D01*
G37*
G36*
G01X6637Y43226D02*
G01X6637Y45226D01*
G01X5637Y45226D01*
G01X5637Y43226D01*
G01X6637Y43226D01*
G37*
G36*
G01X2137Y45206D02*
G01X4137Y45206D01*
G01X4137Y46206D01*
G01X2137Y46206D01*
G01X2137Y45206D01*
G37*
G36*
G01X2136Y47206D02*
G01X4136Y47206D01*
G01X4136Y48206D01*
G01X2136Y48206D01*
G01X2136Y47206D01*
G37*
G36*
G01X2134Y49206D02*
G01X4134Y49206D01*
G01X4134Y50206D01*
G01X2134Y50206D01*
G01X2134Y49206D01*
G37*
G36*
G01X2135Y51206D02*
G01X4135Y51206D01*
G01X4135Y52206D01*
G01X2135Y52206D01*
G01X2135Y51206D01*
G37*
G36*
G01X2136Y53206D02*
G01X4136Y53206D01*
G01X4136Y54206D01*
G01X2136Y54206D01*
G01X2136Y53206D01*
G37*
G36*
G01X2135Y55206D02*
G01X4135Y55206D01*
G01X4135Y56206D01*
G01X2135Y56206D01*
G01X2135Y55206D01*
G37*
G36*
G01X2135Y57206D02*
G01X4135Y57206D01*
G01X4135Y58206D01*
G01X2135Y58206D01*
G01X2135Y57206D01*
G37*
G36*
G01X2135Y59206D02*
G01X4135Y59206D01*
G01X4135Y60206D01*
G01X2135Y60206D01*
G01X2135Y59206D01*
G37*
G36*
G01X29545Y58078D02*
G01X30544Y58078D01*
G01X30544Y60078D01*
G01X29545Y60078D01*
G01X29545Y58078D01*
G37*
G36*
G01X34144Y58078D02*
G01X35144Y58078D01*
G01X35144Y60078D01*
G01X34144Y60078D01*
G01X34144Y58078D01*
G37*
G36*
G01X23322Y58136D02*
G01X24322Y58136D01*
G01X24322Y60136D01*
G01X23322Y60136D01*
G01X23322Y58136D01*
G37*
G36*
G01X27922Y58136D02*
G01X28922Y58136D01*
G01X28922Y60136D01*
G01X27922Y60136D01*
G01X27922Y58136D01*
G37*
G36*
G01X96582Y62750D02*
G01X96582Y60750D01*
G01X99082Y60750D01*
G01X99082Y62750D01*
G01X96582Y62750D01*
G37*
G36*
G01X91082Y62750D02*
G01X91082Y60750D01*
G01X93582Y60750D01*
G01X93582Y62750D01*
G01X91082Y62750D01*
G37*
G36*
G01X96582Y53850D02*
G01X96582Y51850D01*
G01X99082Y51850D01*
G01X99082Y53850D01*
G01X96582Y53850D01*
G37*
G36*
G01X91082Y53850D02*
G01X91082Y51850D01*
G01X93582Y51850D01*
G01X93582Y53850D01*
G01X91082Y53850D01*
G37*
G36*
G01X91182Y55950D02*
G01X91182Y55450D01*
G01X93482Y55450D01*
G01X93482Y55950D01*
G01X91182Y55950D01*
G37*
G36*
G01X91182Y56750D02*
G01X91182Y56250D01*
G01X93482Y56250D01*
G01X93482Y56750D01*
G01X91182Y56750D01*
G37*
G36*
G01X91182Y57550D02*
G01X91182Y57050D01*
G01X93482Y57050D01*
G01X93482Y57550D01*
G01X91182Y57550D01*
G37*
G36*
G01X91182Y58350D02*
G01X91182Y57850D01*
G01X93482Y57850D01*
G01X93482Y58350D01*
G01X91182Y58350D01*
G37*
G36*
G01X91182Y59150D02*
G01X91182Y58650D01*
G01X93482Y58650D01*
G01X93482Y59150D01*
G01X91182Y59150D01*
G37*
G36*
G01X77302Y64287D02*
G01X77302Y63287D01*
G01X78402Y63287D01*
G01X78402Y64287D01*
G01X77302Y64287D01*
G37*
G36*
G01X77302Y62487D02*
G01X77302Y61487D01*
G01X78402Y61487D01*
G01X78402Y62487D01*
G01X77302Y62487D01*
G37*
G36*
G01X84098Y44040D02*
G01X84098Y41740D01*
G01X87898Y41740D01*
G01X87898Y44040D01*
G01X84098Y44040D01*
G37*
G36*
G01X85398Y50240D02*
G01X85398Y48240D01*
G01X86598Y48240D01*
G01X86598Y50240D01*
G01X85398Y50240D01*
G37*
G36*
G01X87698Y50240D02*
G01X87698Y48240D01*
G01X88898Y48240D01*
G01X88898Y50240D01*
G01X87698Y50240D01*
G37*
G36*
G01X83098Y50240D02*
G01X83098Y48240D01*
G01X84298Y48240D01*
G01X84298Y50240D01*
G01X83098Y50240D01*
G37*
G36*
G01X93846Y44287D02*
G01X92545Y44287D01*
G01X92545Y42888D01*
G01X93846Y42888D01*
G01X93846Y44287D01*
G37*
G36*
G01X91745Y44287D02*
G01X90444Y44287D01*
G01X90444Y42888D01*
G01X91745Y42888D01*
G01X91745Y44287D01*
G37*
G36*
G01X32045Y56834D02*
G01X31045Y56834D01*
G01X31045Y55734D01*
G01X32045Y55734D01*
G01X32045Y56834D01*
G37*
G36*
G01X33645Y56834D02*
G01X32645Y56834D01*
G01X32645Y55734D01*
G01X33645Y55734D01*
G01X33645Y56834D01*
G37*
G36*
G01X91862Y46293D02*
G01X90862Y46293D01*
G01X90862Y45193D01*
G01X91862Y45193D01*
G01X91862Y46293D01*
G37*
G36*
G01X93462Y46293D02*
G01X92462Y46293D01*
G01X92462Y45193D01*
G01X93462Y45193D01*
G01X93462Y46293D01*
G37*
G36*
G01X25822Y56892D02*
G01X24822Y56892D01*
G01X24822Y55792D01*
G01X25822Y55792D01*
G01X25822Y56892D01*
G37*
G36*
G01X27422Y56892D02*
G01X26422Y56892D01*
G01X26422Y55792D01*
G01X27422Y55792D01*
G01X27422Y56892D01*
G37*
G36*
G01X85448Y53815D02*
G01X85448Y52815D01*
G01X86548Y52815D01*
G01X86548Y53815D01*
G01X85448Y53815D01*
G37*
G36*
G01X85448Y52015D02*
G01X85448Y51015D01*
G01X86548Y51015D01*
G01X86548Y52015D01*
G01X85448Y52015D01*
G37*
G36*
G01X73492Y64287D02*
G01X73492Y63287D01*
G01X74592Y63287D01*
G01X74592Y64287D01*
G01X73492Y64287D01*
G37*
G36*
G01X73492Y62487D02*
G01X73492Y61487D01*
G01X74592Y61487D01*
G01X74592Y62487D01*
G01X73492Y62487D01*
G37*
G36*
G01X75397Y64287D02*
G01X75397Y63287D01*
G01X76497Y63287D01*
G01X76497Y64287D01*
G01X75397Y64287D01*
G37*
G36*
G01X75397Y62487D02*
G01X75397Y61487D01*
G01X76497Y61487D01*
G01X76497Y62487D01*
G01X75397Y62487D01*
G37*
G36*
G01X87734Y53815D02*
G01X87734Y52815D01*
G01X88834Y52815D01*
G01X88834Y53815D01*
G01X87734Y53815D01*
G37*
G36*
G01X87734Y52015D02*
G01X87734Y51015D01*
G01X88834Y51015D01*
G01X88834Y52015D01*
G01X87734Y52015D01*
G37*
G36*
G01X72339Y57904D02*
G01X72339Y57204D01*
G01X73589Y57204D01*
G01X73589Y57904D01*
G01X72339Y57904D01*
G37*
G36*
G01X69840Y58853D02*
G01X69840Y58153D01*
G01X71090Y58153D01*
G01X71090Y58853D01*
G01X69840Y58853D01*
G37*
G36*
G01X69840Y56954D02*
G01X69840Y56254D01*
G01X71090Y56254D01*
G01X71090Y56954D01*
G01X69840Y56954D01*
G37*
G36*
G01X63216Y57204D02*
G01X63216Y57904D01*
G01X61966Y57904D01*
G01X61966Y57204D01*
G01X63216Y57204D01*
G37*
G36*
G01X65715Y56254D02*
G01X65715Y56954D01*
G01X64465Y56954D01*
G01X64465Y56254D01*
G01X65715Y56254D01*
G37*
G36*
G01X65715Y58153D02*
G01X65715Y58853D01*
G01X64465Y58853D01*
G01X64465Y58153D01*
G01X65715Y58153D01*
G37*
G36*
G01X67477Y59120D02*
G01X66477Y59120D01*
G01X66477Y58020D01*
G01X67477Y58020D01*
G01X67477Y59120D01*
G37*
G36*
G01X69077Y59120D02*
G01X68077Y59120D01*
G01X68077Y58020D01*
G01X69077Y58020D01*
G01X69077Y59120D01*
G37*
G36*
G01X68078Y55988D02*
G01X69078Y55988D01*
G01X69078Y57088D01*
G01X68078Y57088D01*
G01X68078Y55988D01*
G37*
G36*
G01X66478Y55988D02*
G01X67478Y55988D01*
G01X67478Y57088D01*
G01X66478Y57088D01*
G01X66478Y55988D01*
G37*
G36*
G01X20404Y43161D02*
G01X21404Y43161D01*
G01X21404Y44261D01*
G01X20404Y44261D01*
G01X20404Y43161D01*
G37*
G36*
G01X22204Y43161D02*
G01X23204Y43161D01*
G01X23204Y44261D01*
G01X22204Y44261D01*
G01X22204Y43161D01*
G37*
G36*
G01X90523Y16334D02*
G01X90523Y19333D01*
G01X88523Y19333D01*
G01X88523Y16334D01*
G01X90523Y16334D01*
G37*
G36*
G01X94023Y16334D02*
G01X94023Y19333D01*
G01X92023Y19333D01*
G01X92023Y16334D01*
G01X94023Y16334D01*
G37*
G36*
G01X90523Y4334D02*
G01X90523Y7334D01*
G01X88523Y7334D01*
G01X88523Y4334D01*
G01X90523Y4334D01*
G37*
M00*
M02*
