;Layer: Drill PTH
;EasyEDA v6.4.7, 2021-01-21T12:31:56+00:00
;8b80c43fe55248bfb6e8376c4506c8f5,74a5fafabdd44b6e8d5e0fe5421ccbd6,10
;Gerber Generator version 0.2
M48
METRIC,LZ,000.000
;Holesize 1 = 0.305 METRIC
T01C0.305
;Holesize 2 = 0.915 METRIC
T02C0.915
;Holesize 3 = 1.101 METRIC
T03C1.101
;Holesize 4 = 1.800 METRIC
T04C1.800
%
G05
G90
T01
X+094955Y+062126
X+094955Y+061491
X+094955Y+062761
X+094955Y+066444
X+094955Y+067079
X+094955Y+065682
X+094955Y+051499
X+094955Y+052134
X+094955Y+052769
X+094955Y+036499
X+094955Y+037134
X+094955Y+037769
X+094955Y+021499
X+094955Y+022134
X+094955Y+022769
X+094955Y+007770
X+094955Y+007135
X+094955Y+006500
X+007430Y+051519
X+009992Y+053744
X+092531Y+040883
X+007430Y+036520
X+007430Y+006519
X+092542Y+015009
X+092531Y+033320
X+007430Y+021520
X+007430Y+066519
X+005801Y+063396
X+072531Y+066519
X+006690Y+053617
X+025359Y+056342
X+031544Y+056284
X+033995Y+053617
X+078826Y+053617
X+080985Y+053617
X+089977Y+052587
X+092531Y+066519
X+081112Y+057300
X+078826Y+057300
X+076921Y+056284
X+081112Y+056284
X+072964Y+057554
X+062570Y+056284
X+017430Y+063320
X+007430Y+063320
X+027430Y+063320
X+037431Y+063320
X+047431Y+063320
X+057431Y+063320
X+067431Y+063320
X+079883Y+065859
X+097430Y+063320
X+088284Y+053315
X+090002Y+055649
X+017430Y+033320
X+017430Y+018319
X+037431Y+018319
X+057431Y+018319
X+067431Y+018319
X+077431Y+018319
X+037431Y+033320
X+067431Y+033320
X+057431Y+033320
X+077431Y+033320
X+067431Y+048320
X+057431Y+048320
X+077431Y+048320
X+047431Y+048320
X+037431Y+048320
X+022704Y+043711
X+017430Y+048320
X+030045Y+059078
X+074889Y+065555
X+070444Y+063142
X+070444Y+065555
X+084922Y+062380
X+037431Y+003319
X+047431Y+003319
X+057431Y+003319
X+067431Y+003319
X+077431Y+003319
X+027430Y+003319
X+017430Y+003319
X+084033Y+048029
T02
X+018690Y+026631
X+016150Y+026632
X+013610Y+026632
X+011070Y+026632
T03
X+044371Y+014961
X+055371Y+014961
T04
X+052371Y+024962
X+047371Y+024962
M30
